<svg xmlns="http://www.w3.org/2000/svg" viewBox="0 0 480 440"><defs><linearGradient id="fabric" x1="0" x2="1" y2=".7"><stop stop-color="#faf9f1"/><stop offset=".5" stop-color="#eeeee4"/><stop offset="1" stop-color="#d7d8cc"/></linearGradient><filter id="shadow"><feDropShadow dx="0" dy="16" stdDeviation="12" flood-color="#505b3d" flood-opacity=".17"/></filter></defs><rect width="480" height="440" fill="#eaede3"/><ellipse cx="246" cy="379" rx="124" ry="13" fill="#dfe3d6"/><g filter="url(#shadow)" transform="translate(0 4) rotate(-6 240 230)"><path d="M188 75 133 96 68 172 122 216 155 182 150 357Q241 377 330 357L325 182 358 216 411 172 347 96 292 75Q242 105 188 75Z" fill="url(#fabric)" stroke="#c6cabd" stroke-width="1.3"/><path d="M188 75Q239 135 292 75L280 70Q240 93 200 70Z" fill="#dbded1" stroke="#bfc5b5"/><path d="M155 182 162 137M325 182 318 137M158 346Q240 364 322 346M78 166 126 205M400 166 354 205" fill="none" stroke="#c8cdbe" stroke-width="1"/><path d="m174 200-9 120m140-113 10 100" stroke="#fff" stroke-opacity=".5" fill="none"/><text x="240" y="194" text-anchor="middle" font-family="Arial,sans-serif" font-weight="900" font-size="52" letter-spacing="-4" fill="#3a5034">fit.</text><text x="240" y="214" text-anchor="middle" font-family="Arial,sans-serif" font-size="6" letter-spacing="2" fill="#536447">GOOD THINGS. EVERY DAY.</text><path d="M233 236h14m-7-7v14" stroke="#7f9463" stroke-width="1.5"/></g></svg>
